<mxfile host="65bd71144e">
    <diagram name="Page-1" id="lV40iSaLGWkwq5J8a7qe">
        <mxGraphModel dx="2691" dy="2010" grid="0" gridSize="10" guides="1" tooltips="1" connect="1" arrows="1" fold="1" page="1" pageScale="1" pageWidth="850" pageHeight="1100" background="#ffffff" math="0" shadow="0">
            <root>
                <mxCell id="0"/>
                <mxCell id="1" parent="0"/>
                <mxCell id="HDgts2HRx_NMo5KgWnL6-86" value="" style="endArrow=classic;startArrow=classic;html=1;rounded=0;exitX=0.5;exitY=0;exitDx=0;exitDy=0;fontColor=#000000;fontSize=12;strokeColor=#000000;strokeWidth=2;" parent="1" source="HDgts2HRx_NMo5KgWnL6-82" target="HDgts2HRx_NMo5KgWnL6-74" edge="1">
                    <mxGeometry width="50" height="50" relative="1" as="geometry">
                        <mxPoint x="60" y="-40" as="sourcePoint"/>
                        <mxPoint x="110" y="-90" as="targetPoint"/>
                    </mxGeometry>
                </mxCell>
                <mxCell id="HDgts2HRx_NMo5KgWnL6-82" value="&lt;font style=&quot;font-size: 26px;&quot;&gt;tcp/ip network&lt;/font&gt;" style="rounded=1;whiteSpace=wrap;html=1;fillColor=none;strokeColor=#000000;fontColor=#000000;strokeWidth=2;" parent="1" vertex="1">
                    <mxGeometry x="-207" width="210" height="60" as="geometry"/>
                </mxCell>
                <mxCell id="75" value="&lt;font&gt;P2P TCP/IP&lt;/font&gt;" style="endArrow=classic;html=1;strokeColor=#000000;fontSize=26;fontColor=#000000;entryX=0.75;entryY=0;entryDx=0;entryDy=0;exitX=0.72;exitY=0.007;exitDx=0;exitDy=0;exitPerimeter=0;startArrow=classic;startFill=1;strokeWidth=2;labelBackgroundColor=#FFFFFF;" parent="1" source="70" target="176" edge="1">
                    <mxGeometry relative="1" as="geometry">
                        <mxPoint x="2429" y="132" as="sourcePoint"/>
                        <mxPoint x="2799" y="182" as="targetPoint"/>
                        <Array as="points">
                            <mxPoint x="984" y="42"/>
                            <mxPoint x="1969" y="42"/>
                            <mxPoint x="2770" y="44"/>
                        </Array>
                    </mxGeometry>
                </mxCell>
                <mxCell id="76" value="" style="edgeLabel;resizable=0;html=1;align=center;verticalAlign=middle;strokeColor=#008700;fontSize=26;fontColor=default;" parent="75" connectable="0" vertex="1">
                    <mxGeometry relative="1" as="geometry"/>
                </mxCell>
                <mxCell id="HDgts2HRx_NMo5KgWnL6-73" value="" style="rounded=1;whiteSpace=wrap;html=1;fillColor=none;strokeColor=#000000;" parent="1" vertex="1">
                    <mxGeometry x="-550" y="-450" width="810" height="420" as="geometry"/>
                </mxCell>
                <mxCell id="HDgts2HRx_NMo5KgWnL6-74" value="&lt;font style=&quot;font-size: 26px;&quot;&gt;network&lt;/font&gt;&lt;div&gt;&lt;font style=&quot;font-size: 26px;&quot;&gt;interface&lt;/font&gt;&lt;/div&gt;" style="rounded=1;whiteSpace=wrap;html=1;fillColor=none;strokeColor=#000000;fontColor=#000000;strokeWidth=2;" parent="1" vertex="1">
                    <mxGeometry x="-187" y="-119" width="170" height="70" as="geometry"/>
                </mxCell>
                <mxCell id="HDgts2HRx_NMo5KgWnL6-75" value="&lt;font color=&quot;#ff00ff&quot; style=&quot;font-size: 26px;&quot;&gt;INDI Server&lt;/font&gt;" style="shape=process;whiteSpace=wrap;html=1;backgroundOutline=1;strokeColor=#FF00FF;fillColor=none;strokeWidth=2;" parent="1" vertex="1">
                    <mxGeometry x="-490" y="-215" width="240" height="60" as="geometry"/>
                </mxCell>
                <mxCell id="HDgts2HRx_NMo5KgWnL6-77" value="&lt;font style=&quot;font-size: 26px;&quot; color=&quot;#008700&quot;&gt;milkzmq client&lt;/font&gt;" style="shape=process;whiteSpace=wrap;html=1;backgroundOutline=1;strokeColor=#008700;strokeWidth=2;fillColor=none;" parent="1" vertex="1">
                    <mxGeometry x="-30" y="-220" width="250" height="70" as="geometry"/>
                </mxCell>
                <mxCell id="HDgts2HRx_NMo5KgWnL6-79" value="&lt;font color=&quot;#008700&quot; style=&quot;font-size: 26px;&quot;&gt;shared memory&lt;/font&gt;" style="ellipse;whiteSpace=wrap;html=1;strokeWidth=2;strokeColor=#008700;fillColor=none;" parent="1" vertex="1">
                    <mxGeometry x="-45" y="-340" width="280" height="80" as="geometry"/>
                </mxCell>
                <mxCell id="HDgts2HRx_NMo5KgWnL6-80" value="&lt;font style=&quot;font-size: 26px;&quot;&gt;Operator Computer&lt;/font&gt;" style="text;html=1;align=center;verticalAlign=middle;whiteSpace=wrap;rounded=0;fontColor=#000000;" parent="1" vertex="1">
                    <mxGeometry x="-520" y="-490" width="260" height="30" as="geometry"/>
                </mxCell>
                <mxCell id="HDgts2HRx_NMo5KgWnL6-90" value="" style="endArrow=classic;startArrow=classic;html=1;rounded=0;exitX=1;exitY=0.5;exitDx=0;exitDy=0;entryX=0.5;entryY=1;entryDx=0;entryDy=0;strokeColor=#000000;strokeWidth=2;" parent="1" source="HDgts2HRx_NMo5KgWnL6-74" target="HDgts2HRx_NMo5KgWnL6-77" edge="1">
                    <mxGeometry width="50" height="50" relative="1" as="geometry">
                        <mxPoint x="-95" y="30" as="sourcePoint"/>
                        <mxPoint x="-95" y="-40" as="targetPoint"/>
                        <Array as="points">
                            <mxPoint x="95" y="-85"/>
                        </Array>
                    </mxGeometry>
                </mxCell>
                <mxCell id="HDgts2HRx_NMo5KgWnL6-91" value="" style="endArrow=classic;startArrow=classic;html=1;rounded=0;exitX=0;exitY=0.5;exitDx=0;exitDy=0;entryX=0.5;entryY=1;entryDx=0;entryDy=0;strokeColor=#000000;strokeWidth=2;" parent="1" source="HDgts2HRx_NMo5KgWnL6-74" target="HDgts2HRx_NMo5KgWnL6-75" edge="1">
                    <mxGeometry width="50" height="50" relative="1" as="geometry">
                        <mxPoint x="-10" y="-75" as="sourcePoint"/>
                        <mxPoint x="105" y="-140" as="targetPoint"/>
                        <Array as="points">
                            <mxPoint x="-370" y="-85"/>
                        </Array>
                    </mxGeometry>
                </mxCell>
                <mxCell id="HDgts2HRx_NMo5KgWnL6-92" value="" style="endArrow=classic;startArrow=none;html=1;rounded=0;entryX=0.5;entryY=1;entryDx=0;entryDy=0;strokeColor=#00CC00;startFill=0;" parent="1" source="HDgts2HRx_NMo5KgWnL6-77" target="HDgts2HRx_NMo5KgWnL6-79" edge="1">
                    <mxGeometry width="50" height="50" relative="1" as="geometry">
                        <mxPoint x="240" y="100" as="sourcePoint"/>
                        <mxPoint x="290" y="50" as="targetPoint"/>
                    </mxGeometry>
                </mxCell>
                <mxCell id="HDgts2HRx_NMo5KgWnL6-93" value="&lt;font style=&quot;font-size: 26px;&quot;&gt;GUI&lt;/font&gt;" style="rounded=1;whiteSpace=wrap;html=1;fillColor=none;strokeColor=#000000;fontColor=#000000;strokeWidth=2;" parent="1" vertex="1">
                    <mxGeometry x="-150" y="-430" width="120" height="60" as="geometry"/>
                </mxCell>
                <mxCell id="HDgts2HRx_NMo5KgWnL6-95" value="&lt;font style=&quot;font-size: 26px;&quot;&gt;script&lt;/font&gt;" style="shape=process;whiteSpace=wrap;html=1;backgroundOutline=1;fillColor=none;strokeColor=#000000;fontColor=#000000;strokeWidth=2;" parent="1" vertex="1">
                    <mxGeometry x="-405" y="-430" width="120" height="60" as="geometry"/>
                </mxCell>
                <mxCell id="HDgts2HRx_NMo5KgWnL6-96" value="" style="endArrow=classic;startArrow=none;html=1;rounded=0;entryX=0.5;entryY=1;entryDx=0;entryDy=0;strokeColor=#00CC00;startFill=0;exitX=0;exitY=0.5;exitDx=0;exitDy=0;fillColor=#008a00;strokeWidth=2;" parent="1" source="HDgts2HRx_NMo5KgWnL6-79" edge="1">
                    <mxGeometry width="50" height="50" relative="1" as="geometry">
                        <mxPoint x="-50" y="-300" as="sourcePoint"/>
                        <mxPoint x="-90" y="-370" as="targetPoint"/>
                        <Array as="points">
                            <mxPoint x="-90" y="-300"/>
                        </Array>
                    </mxGeometry>
                </mxCell>
                <mxCell id="HDgts2HRx_NMo5KgWnL6-97" value="" style="endArrow=classic;startArrow=none;html=1;rounded=0;entryX=0.5;entryY=1;entryDx=0;entryDy=0;strokeColor=#00CC00;startFill=0;exitX=0;exitY=0.5;exitDx=0;exitDy=0;strokeWidth=2;" parent="1" source="HDgts2HRx_NMo5KgWnL6-79" target="HDgts2HRx_NMo5KgWnL6-95" edge="1">
                    <mxGeometry width="50" height="50" relative="1" as="geometry">
                        <mxPoint x="-50" y="-300" as="sourcePoint"/>
                        <mxPoint x="-80" y="-360" as="targetPoint"/>
                        <Array as="points">
                            <mxPoint x="-345" y="-300"/>
                        </Array>
                    </mxGeometry>
                </mxCell>
                <mxCell id="HDgts2HRx_NMo5KgWnL6-98" value="" style="edgeStyle=elbowEdgeStyle;elbow=vertical;endArrow=classic;html=1;curved=0;rounded=0;endSize=8;startSize=8;entryX=0.25;entryY=1;entryDx=0;entryDy=0;strokeColor=#FF00FF;strokeWidth=2;startArrow=classic;startFill=1;exitX=0.5;exitY=0;exitDx=0;exitDy=0;" parent="1" source="HDgts2HRx_NMo5KgWnL6-75" target="HDgts2HRx_NMo5KgWnL6-95" edge="1">
                    <mxGeometry width="50" height="50" relative="1" as="geometry">
                        <mxPoint x="-133.5" y="-190" as="sourcePoint"/>
                        <mxPoint x="-346.5" y="-370" as="targetPoint"/>
                        <Array as="points">
                            <mxPoint x="-360" y="-280"/>
                        </Array>
                    </mxGeometry>
                </mxCell>
                <mxCell id="HDgts2HRx_NMo5KgWnL6-99" value="" style="edgeStyle=elbowEdgeStyle;elbow=vertical;endArrow=classic;html=1;curved=0;rounded=0;endSize=8;startSize=8;entryX=0.25;entryY=1;entryDx=0;entryDy=0;strokeColor=#FF00FF;strokeWidth=2;startArrow=classic;startFill=1;exitX=0.5;exitY=0;exitDx=0;exitDy=0;" parent="1" source="HDgts2HRx_NMo5KgWnL6-75" target="HDgts2HRx_NMo5KgWnL6-93" edge="1">
                    <mxGeometry width="50" height="50" relative="1" as="geometry">
                        <mxPoint x="-335" y="-205" as="sourcePoint"/>
                        <mxPoint x="-365" y="-360" as="targetPoint"/>
                        <Array as="points">
                            <mxPoint x="-230" y="-280"/>
                        </Array>
                    </mxGeometry>
                </mxCell>
                <mxCell id="161" value="" style="group" vertex="1" connectable="0" parent="1">
                    <mxGeometry x="-691" y="42" width="1740" height="898" as="geometry"/>
                </mxCell>
                <mxCell id="HDgts2HRx_NMo5KgWnL6-55" value="" style="rounded=1;whiteSpace=wrap;html=1;fillColor=none;strokeColor=#000000;" parent="161" vertex="1">
                    <mxGeometry y="40" width="1740" height="760" as="geometry"/>
                </mxCell>
                <mxCell id="HDgts2HRx_NMo5KgWnL6-56" value="&lt;font color=&quot;#008700&quot; style=&quot;font-size: 26px;&quot;&gt;shared memory&lt;/font&gt;" style="ellipse;whiteSpace=wrap;html=1;strokeWidth=2;strokeColor=#008700;fillColor=none;" parent="161" vertex="1">
                    <mxGeometry x="1261" y="68" width="340" height="80" as="geometry"/>
                </mxCell>
                <mxCell id="HDgts2HRx_NMo5KgWnL6-60" value="&lt;font color=&quot;#ff00ff&quot; style=&quot;font-size: 26px;&quot;&gt;INDI Server&lt;/font&gt;" style="shape=process;whiteSpace=wrap;html=1;backgroundOutline=1;strokeColor=#FF00FF;fillColor=none;strokeWidth=2;" parent="161" vertex="1">
                    <mxGeometry x="110" y="70" width="290" height="60" as="geometry"/>
                </mxCell>
                <mxCell id="HDgts2HRx_NMo5KgWnL6-62" value="" style="edgeStyle=elbowEdgeStyle;elbow=vertical;endArrow=classic;html=1;curved=0;rounded=0;endSize=8;startSize=8;entryX=0.5;entryY=1;entryDx=0;entryDy=0;strokeColor=#FF00FF;strokeWidth=2;startArrow=classic;startFill=1;exitX=0.5;exitY=0;exitDx=0;exitDy=0;" parent="161" source="138" target="HDgts2HRx_NMo5KgWnL6-60" edge="1">
                    <mxGeometry width="50" height="50" relative="1" as="geometry">
                        <mxPoint x="1307.5" y="300" as="sourcePoint"/>
                        <mxPoint x="1210" y="120" as="targetPoint"/>
                        <Array as="points">
                            <mxPoint x="1200" y="200"/>
                        </Array>
                    </mxGeometry>
                </mxCell>
                <mxCell id="HDgts2HRx_NMo5KgWnL6-65" style="edgeStyle=orthogonalEdgeStyle;rounded=0;orthogonalLoop=1;jettySize=auto;html=1;exitX=1;exitY=0.5;exitDx=0;exitDy=0;startArrow=classic;startFill=1;strokeColor=#008700;strokeWidth=2;endArrow=none;endFill=0;" parent="161" source="HDgts2HRx_NMo5KgWnL6-63" target="HDgts2HRx_NMo5KgWnL6-56" edge="1">
                    <mxGeometry relative="1" as="geometry"/>
                </mxCell>
                <mxCell id="HDgts2HRx_NMo5KgWnL6-63" value="&lt;font style=&quot;font-size: 26px;&quot; color=&quot;#008700&quot;&gt;milkzmq server&lt;/font&gt;" style="shape=process;whiteSpace=wrap;html=1;backgroundOutline=1;strokeColor=#008700;strokeWidth=2;fillColor=none;" parent="161" vertex="1">
                    <mxGeometry x="786" y="78" width="250" height="60" as="geometry"/>
                </mxCell>
                <mxCell id="HDgts2HRx_NMo5KgWnL6-67" value="&lt;font style=&quot;font-size: 26px;&quot;&gt;network interface&lt;/font&gt;" style="rounded=1;whiteSpace=wrap;html=1;fillColor=none;fontColor=#000000;strokeColor=#000000;strokeWidth=2;" parent="161" vertex="1">
                    <mxGeometry x="504" y="65" width="170" height="70" as="geometry"/>
                </mxCell>
                <mxCell id="HDgts2HRx_NMo5KgWnL6-68" style="edgeStyle=orthogonalEdgeStyle;rounded=0;orthogonalLoop=1;jettySize=auto;html=1;exitX=1;exitY=0.5;exitDx=0;exitDy=0;entryX=0;entryY=0.5;entryDx=0;entryDy=0;startArrow=classic;startFill=1;strokeWidth=2;strokeColor=#000000;" parent="161" source="HDgts2HRx_NMo5KgWnL6-60" target="HDgts2HRx_NMo5KgWnL6-67" edge="1">
                    <mxGeometry relative="1" as="geometry"/>
                </mxCell>
                <mxCell id="HDgts2HRx_NMo5KgWnL6-69" style="edgeStyle=orthogonalEdgeStyle;rounded=0;orthogonalLoop=1;jettySize=auto;html=1;exitX=0;exitY=0.5;exitDx=0;exitDy=0;entryX=1.006;entryY=0.617;entryDx=0;entryDy=0;entryPerimeter=0;startArrow=classic;startFill=1;strokeWidth=2;strokeColor=#000000;" parent="161" source="HDgts2HRx_NMo5KgWnL6-63" target="HDgts2HRx_NMo5KgWnL6-67" edge="1">
                    <mxGeometry relative="1" as="geometry"/>
                </mxCell>
                <mxCell id="HDgts2HRx_NMo5KgWnL6-61" value="" style="edgeStyle=elbowEdgeStyle;elbow=vertical;endArrow=classic;html=1;curved=0;rounded=0;endSize=8;startSize=8;entryX=0.5;entryY=1;entryDx=0;entryDy=0;strokeColor=#FF00FF;strokeWidth=2;startArrow=classic;startFill=1;exitX=0.5;exitY=0;exitDx=0;exitDy=0;" parent="161" target="HDgts2HRx_NMo5KgWnL6-60" edge="1" source="84">
                    <mxGeometry width="50" height="50" relative="1" as="geometry">
                        <mxPoint x="468" y="310" as="sourcePoint"/>
                        <mxPoint x="260" y="130" as="targetPoint"/>
                        <Array as="points">
                            <mxPoint x="420" y="200"/>
                        </Array>
                    </mxGeometry>
                </mxCell>
                <mxCell id="HDgts2HRx_NMo5KgWnL6-59" value="" style="edgeStyle=elbowEdgeStyle;elbow=vertical;endArrow=classic;html=1;curved=0;rounded=0;endSize=8;startSize=8;startArrow=classic;startFill=1;strokeColor=#008700;strokeWidth=2;exitX=0.213;exitY=-0.02;exitDx=0;exitDy=0;entryX=0.5;entryY=1;entryDx=0;entryDy=0;exitPerimeter=0;" parent="161" source="139" target="HDgts2HRx_NMo5KgWnL6-56" edge="1">
                    <mxGeometry width="50" height="50" relative="1" as="geometry">
                        <mxPoint x="1537.5" y="300" as="sourcePoint"/>
                        <mxPoint x="1390" y="130" as="targetPoint"/>
                        <Array as="points">
                            <mxPoint x="1560" y="220"/>
                        </Array>
                    </mxGeometry>
                </mxCell>
                <mxCell id="HDgts2HRx_NMo5KgWnL6-72" value="&lt;font style=&quot;font-size: 26px;&quot;&gt;Control Computer&lt;/font&gt;" style="text;html=1;align=center;verticalAlign=middle;whiteSpace=wrap;rounded=0;fontColor=#000000;" parent="161" vertex="1">
                    <mxGeometry x="80" width="260" height="30" as="geometry"/>
                </mxCell>
                <mxCell id="HDgts2HRx_NMo5KgWnL6-83" value="" style="endArrow=classic;startArrow=classic;html=1;rounded=0;exitX=0.5;exitY=0;exitDx=0;exitDy=0;entryX=0.5;entryY=1;entryDx=0;entryDy=0;strokeColor=#000000;strokeWidth=2;" parent="161" source="HDgts2HRx_NMo5KgWnL6-67" target="HDgts2HRx_NMo5KgWnL6-82" edge="1">
                    <mxGeometry width="50" height="50" relative="1" as="geometry">
                        <mxPoint x="750" y="-120" as="sourcePoint"/>
                        <mxPoint x="800" y="-170" as="targetPoint"/>
                    </mxGeometry>
                </mxCell>
                <mxCell id="70" value="&lt;font color=&quot;#008700&quot; style=&quot;font-size: 26px;&quot;&gt;shmimTCP&lt;/font&gt;" style="rounded=1;whiteSpace=wrap;html=1;strokeColor=#008700;fillColor=none;strokeWidth=2;" parent="161" vertex="1">
                    <mxGeometry x="1562" y="163" width="160" height="70" as="geometry"/>
                </mxCell>
                <mxCell id="72" value="" style="endArrow=classic;startArrow=classic;html=1;strokeColor=#008700;fontSize=26;fontColor=#008700;entryX=1;entryY=0.5;entryDx=0;entryDy=0;exitX=0.5;exitY=0;exitDx=0;exitDy=0;strokeWidth=2;" parent="161" source="70" target="HDgts2HRx_NMo5KgWnL6-56" edge="1">
                    <mxGeometry width="50" height="50" relative="1" as="geometry">
                        <mxPoint x="2210" y="340" as="sourcePoint"/>
                        <mxPoint x="2260" y="290" as="targetPoint"/>
                        <Array as="points">
                            <mxPoint x="1642" y="108"/>
                        </Array>
                    </mxGeometry>
                </mxCell>
                <mxCell id="HDgts2HRx_NMo5KgWnL6-58" value="" style="edgeStyle=elbowEdgeStyle;elbow=vertical;endArrow=classic;html=1;curved=0;rounded=0;endSize=8;startSize=8;startArrow=classic;startFill=1;strokeColor=#008700;strokeWidth=2;entryX=0.5;entryY=1;entryDx=0;entryDy=0;exitX=0.459;exitY=0.017;exitDx=0;exitDy=0;exitPerimeter=0;" parent="161" source="85" target="HDgts2HRx_NMo5KgWnL6-56" edge="1">
                    <mxGeometry width="50" height="50" relative="1" as="geometry">
                        <mxPoint x="697.5" y="300" as="sourcePoint"/>
                        <mxPoint x="990" y="90" as="targetPoint"/>
                        <Array as="points">
                            <mxPoint x="1160" y="220"/>
                        </Array>
                    </mxGeometry>
                </mxCell>
                <mxCell id="80" value="" style="group" vertex="1" connectable="0" parent="161">
                    <mxGeometry x="50" y="255" width="820" height="640" as="geometry"/>
                </mxCell>
                <mxCell id="81" value="" style="shape=cylinder3;whiteSpace=wrap;html=1;boundedLbl=1;backgroundOutline=1;size=15;container=0;fontSize=22;fillColor=#E6E6E6;strokeColor=#000000;fillStyle=solid;" vertex="1" parent="80">
                    <mxGeometry x="360" y="472" width="60" height="40" as="geometry"/>
                </mxCell>
                <mxCell id="82" value="" style="rounded=1;whiteSpace=wrap;html=1;strokeWidth=2;strokeColor=#66B2FF;container=0;fillColor=none;fontSize=22;" vertex="1" parent="80">
                    <mxGeometry x="50" y="40" width="770" height="370" as="geometry"/>
                </mxCell>
                <mxCell id="83" value="&lt;font color=&quot;#cc6600&quot; style=&quot;font-size: 22px;&quot;&gt;device&amp;nbsp;&lt;/font&gt;&lt;div style=&quot;font-size: 22px;&quot;&gt;&lt;font color=&quot;#cc6600&quot; style=&quot;font-size: 22px;&quot;&gt;interface&lt;/font&gt;&lt;/div&gt;" style="rounded=1;whiteSpace=wrap;html=1;strokeColor=#d88322;strokeWidth=2;container=0;fontSize=22;fillColor=none;" vertex="1" parent="80">
                    <mxGeometry x="110" y="60" width="190" height="90" as="geometry"/>
                </mxCell>
                <mxCell id="84" value="&lt;span style=&quot;font-size: 22px;&quot;&gt;&lt;font color=&quot;#ff00ff&quot; style=&quot;font-size: 22px;&quot;&gt;INDI&lt;/font&gt;&lt;/span&gt;&lt;div style=&quot;font-size: 22px;&quot;&gt;&lt;span style=&quot;font-size: 22px;&quot;&gt;&lt;font color=&quot;#ff00ff&quot; style=&quot;font-size: 22px;&quot;&gt;soft-RT IPC&lt;/font&gt;&lt;/span&gt;&lt;/div&gt;" style="rounded=1;whiteSpace=wrap;html=1;strokeColor=#CC00CC;strokeWidth=2;container=0;fontSize=22;fillColor=none;" vertex="1" parent="80">
                    <mxGeometry x="325" y="60" width="205" height="90" as="geometry"/>
                </mxCell>
                <mxCell id="85" value="&lt;span style=&quot;font-size: 22px;&quot;&gt;&lt;font style=&quot;font-size: 22px;&quot;&gt;ISIO&lt;/font&gt;&lt;/span&gt;&lt;div style=&quot;font-size: 22px;&quot;&gt;&lt;span style=&quot;font-size: 22px;&quot;&gt;&lt;font style=&quot;font-size: 22px;&quot;&gt;low-latency IPC&lt;/font&gt;&lt;/span&gt;&lt;/div&gt;" style="rounded=1;whiteSpace=wrap;html=1;strokeColor=#008700;strokeWidth=2;container=0;fontSize=22;fillColor=none;fontColor=#008700;" vertex="1" parent="80">
                    <mxGeometry x="555" y="60" width="205" height="90" as="geometry"/>
                </mxCell>
                <mxCell id="86" value="&lt;font style=&quot;font-size: 22px;&quot;&gt;Event Loop&lt;/font&gt;" style="rounded=1;whiteSpace=wrap;html=1;container=0;fontSize=22;fillColor=none;fontColor=#000000;strokeColor=#000000;" vertex="1" parent="80">
                    <mxGeometry x="110" y="200" width="250" height="110" as="geometry"/>
                </mxCell>
                <mxCell id="87" value="&lt;font style=&quot;font-size: 22px;&quot;&gt;low-latency thread(s)&lt;/font&gt;&lt;div style=&quot;font-size: 22px;&quot;&gt;&lt;font style=&quot;font-size: 22px;&quot;&gt;(cpu isolated, r/t priority, etc.)&lt;/font&gt;&lt;/div&gt;" style="rounded=1;whiteSpace=wrap;html=1;container=0;fontSize=22;fillColor=none;fontColor=#000000;strokeColor=#000000;" vertex="1" parent="80">
                    <mxGeometry x="410" y="200" width="350" height="110" as="geometry"/>
                </mxCell>
                <mxCell id="88" value="&lt;font style=&quot;font-size: 22px;&quot;&gt;usb, RS232, modbus, telnet, PCIe, etc.&lt;/font&gt;" style="rounded=1;whiteSpace=wrap;html=1;strokeColor=#CC6600;strokeWidth=2;fontColor=#CC6600;container=0;fontSize=22;fillColor=none;" vertex="1" parent="80">
                    <mxGeometry x="90" y="430" width="240" height="90" as="geometry"/>
                </mxCell>
                <mxCell id="89" value="" style="endArrow=classic;startArrow=classic;html=1;rounded=0;entryX=0;entryY=0.5;entryDx=0;entryDy=0;strokeColor=#CC6600;strokeWidth=3;fontSize=22;" edge="1" parent="80" target="83">
                    <mxGeometry width="50" height="50" relative="1" as="geometry">
                        <mxPoint x="90" y="480" as="sourcePoint"/>
                        <mxPoint x="510" y="120" as="targetPoint"/>
                        <Array as="points">
                            <mxPoint y="480"/>
                            <mxPoint y="105"/>
                        </Array>
                    </mxGeometry>
                </mxCell>
                <mxCell id="90" value="&lt;font style=&quot;font-size: 22px;&quot;&gt;config&lt;/font&gt;" style="rounded=1;whiteSpace=wrap;html=1;container=0;fontSize=22;fillColor=none;strokeColor=#000000;fontColor=#000000;" vertex="1" parent="80">
                    <mxGeometry x="320" y="362" width="140" height="40" as="geometry"/>
                </mxCell>
                <mxCell id="91" value="logs" style="rounded=1;whiteSpace=wrap;html=1;container=0;fontSize=22;fillColor=none;strokeColor=#000000;fontColor=#000000;" vertex="1" parent="80">
                    <mxGeometry x="480" y="362" width="140" height="40" as="geometry"/>
                </mxCell>
                <mxCell id="92" value="&lt;span style=&quot;font-size: 22px;&quot;&gt;telemetry&lt;/span&gt;" style="rounded=1;whiteSpace=wrap;html=1;container=0;fontSize=22;fillColor=none;strokeColor=#000000;fontColor=#000000;" vertex="1" parent="80">
                    <mxGeometry x="640" y="362" width="140" height="40" as="geometry"/>
                </mxCell>
                <mxCell id="93" value="" style="shape=cylinder3;whiteSpace=wrap;html=1;boundedLbl=1;backgroundOutline=1;size=15;container=0;fontSize=22;fillColor=#E6E6E6;strokeColor=#000000;fillStyle=solid;" vertex="1" parent="80">
                    <mxGeometry x="360" y="462" width="60" height="40" as="geometry"/>
                </mxCell>
                <mxCell id="94" value="" style="shape=cylinder3;whiteSpace=wrap;html=1;boundedLbl=1;backgroundOutline=1;size=15;container=0;fontSize=22;fillColor=#E6E6E6;strokeColor=#000000;fillStyle=solid;" vertex="1" parent="80">
                    <mxGeometry x="360" y="442" width="60" height="40" as="geometry"/>
                </mxCell>
                <mxCell id="95" value="" style="shape=cylinder3;whiteSpace=wrap;html=1;boundedLbl=1;backgroundOutline=1;size=15;container=0;fontSize=22;fillColor=#E6E6E6;strokeColor=#000000;fillStyle=solid;" vertex="1" parent="80">
                    <mxGeometry x="520" y="472" width="60" height="40" as="geometry"/>
                </mxCell>
                <mxCell id="96" value="" style="shape=cylinder3;whiteSpace=wrap;html=1;boundedLbl=1;backgroundOutline=1;size=15;container=0;fontSize=22;fillColor=#E6E6E6;strokeColor=#000000;fillStyle=solid;" vertex="1" parent="80">
                    <mxGeometry x="520" y="462" width="60" height="40" as="geometry"/>
                </mxCell>
                <mxCell id="97" value="" style="shape=cylinder3;whiteSpace=wrap;html=1;boundedLbl=1;backgroundOutline=1;size=15;container=0;fontSize=22;fillColor=#E6E6E6;strokeColor=#000000;fillStyle=solid;" vertex="1" parent="80">
                    <mxGeometry x="680" y="472" width="60" height="40" as="geometry"/>
                </mxCell>
                <mxCell id="98" value="" style="shape=cylinder3;whiteSpace=wrap;html=1;boundedLbl=1;backgroundOutline=1;size=15;container=0;fontSize=22;fillColor=#E6E6E6;strokeColor=#000000;fillStyle=solid;" vertex="1" parent="80">
                    <mxGeometry x="680" y="462" width="60" height="40" as="geometry"/>
                </mxCell>
                <mxCell id="99" value="" style="shape=cylinder3;whiteSpace=wrap;html=1;boundedLbl=1;backgroundOutline=1;size=15;container=0;fontSize=22;fillColor=#E6E6E6;strokeColor=#000000;fillStyle=solid;" vertex="1" parent="80">
                    <mxGeometry x="680" y="442" width="60" height="40" as="geometry"/>
                </mxCell>
                <mxCell id="100" value="" style="endArrow=classic;html=1;rounded=0;exitX=0.5;exitY=0;exitDx=0;exitDy=0;exitPerimeter=0;entryX=0.5;entryY=1;entryDx=0;entryDy=0;fontSize=22;strokeColor=#000000;" edge="1" parent="80" source="94" target="90">
                    <mxGeometry width="50" height="50" relative="1" as="geometry">
                        <mxPoint x="680" y="122" as="sourcePoint"/>
                        <mxPoint x="730" y="72" as="targetPoint"/>
                    </mxGeometry>
                </mxCell>
                <mxCell id="101" value="" style="endArrow=classic;html=1;rounded=0;exitX=0.5;exitY=1;exitDx=0;exitDy=0;entryX=0.5;entryY=0;entryDx=0;entryDy=0;entryPerimeter=0;fontSize=22;strokeColor=#000000;" edge="1" parent="80" source="91">
                    <mxGeometry width="50" height="50" relative="1" as="geometry">
                        <mxPoint x="400" y="452" as="sourcePoint"/>
                        <mxPoint x="550" y="442" as="targetPoint"/>
                    </mxGeometry>
                </mxCell>
                <mxCell id="102" value="" style="endArrow=classic;html=1;rounded=0;exitX=0.5;exitY=1;exitDx=0;exitDy=0;entryX=0.5;entryY=0;entryDx=0;entryDy=0;entryPerimeter=0;fontSize=22;strokeColor=#000000;" edge="1" parent="80" source="92" target="99">
                    <mxGeometry width="50" height="50" relative="1" as="geometry">
                        <mxPoint x="680" y="122" as="sourcePoint"/>
                        <mxPoint x="710" y="432" as="targetPoint"/>
                    </mxGeometry>
                </mxCell>
                <mxCell id="103" value="XWCApp" style="text;html=1;align=center;verticalAlign=middle;whiteSpace=wrap;rounded=0;fontSize=22;fontColor=#3399FF;container=0;" vertex="1" parent="80">
                    <mxGeometry x="100" width="110" height="30" as="geometry"/>
                </mxCell>
                <mxCell id="104" value="" style="shape=cylinder3;whiteSpace=wrap;html=1;boundedLbl=1;backgroundOutline=1;size=15;container=0;fontSize=22;fillColor=#E6E6E6;strokeColor=#000000;fillStyle=solid;" vertex="1" parent="80">
                    <mxGeometry x="520" y="442" width="60" height="40" as="geometry"/>
                </mxCell>
                <mxCell id="105" value="device" style="ellipse;shape=doubleEllipse;whiteSpace=wrap;html=1;fillColor=#FF9933;fillStyle=solid;fontSize=22;fontColor=#000000;strokeWidth=3;strokeColor=#CC6600;" vertex="1" parent="80">
                    <mxGeometry x="100" y="570" width="220" height="70" as="geometry"/>
                </mxCell>
                <mxCell id="106" value="" style="endArrow=classic;startArrow=classic;html=1;rounded=0;entryX=0.5;entryY=1;entryDx=0;entryDy=0;fontColor=#000000;strokeColor=#CC6600;strokeWidth=3;labelBackgroundColor=none;fontSize=22;exitX=0.5;exitY=0;exitDx=0;exitDy=0;" edge="1" parent="80" source="105" target="88">
                    <mxGeometry width="50" height="50" relative="1" as="geometry">
                        <mxPoint x="270" y="560" as="sourcePoint"/>
                        <mxPoint x="510" y="120" as="targetPoint"/>
                    </mxGeometry>
                </mxCell>
                <mxCell id="134" value="" style="group" vertex="1" connectable="0" parent="161">
                    <mxGeometry x="888" y="258" width="820" height="640" as="geometry"/>
                </mxCell>
                <mxCell id="135" value="" style="shape=cylinder3;whiteSpace=wrap;html=1;boundedLbl=1;backgroundOutline=1;size=15;container=0;fontSize=22;fillColor=#E6E6E6;strokeColor=#000000;fillStyle=solid;" vertex="1" parent="134">
                    <mxGeometry x="360" y="472" width="60" height="40" as="geometry"/>
                </mxCell>
                <mxCell id="136" value="" style="rounded=1;whiteSpace=wrap;html=1;strokeWidth=2;strokeColor=#66B2FF;container=0;fillColor=none;fontSize=22;" vertex="1" parent="134">
                    <mxGeometry x="50" y="40" width="770" height="370" as="geometry"/>
                </mxCell>
                <mxCell id="137" value="&lt;font color=&quot;#cc6600&quot; style=&quot;font-size: 22px;&quot;&gt;device&amp;nbsp;&lt;/font&gt;&lt;div style=&quot;font-size: 22px;&quot;&gt;&lt;font color=&quot;#cc6600&quot; style=&quot;font-size: 22px;&quot;&gt;interface&lt;/font&gt;&lt;/div&gt;" style="rounded=1;whiteSpace=wrap;html=1;strokeColor=#d88322;strokeWidth=2;container=0;fontSize=22;fillColor=none;" vertex="1" parent="134">
                    <mxGeometry x="110" y="60" width="190" height="90" as="geometry"/>
                </mxCell>
                <mxCell id="138" value="&lt;span style=&quot;font-size: 22px;&quot;&gt;&lt;font color=&quot;#ff00ff&quot; style=&quot;font-size: 22px;&quot;&gt;INDI&lt;/font&gt;&lt;/span&gt;&lt;div style=&quot;font-size: 22px;&quot;&gt;&lt;span style=&quot;font-size: 22px;&quot;&gt;&lt;font color=&quot;#ff00ff&quot; style=&quot;font-size: 22px;&quot;&gt;soft-RT IPC&lt;/font&gt;&lt;/span&gt;&lt;/div&gt;" style="rounded=1;whiteSpace=wrap;html=1;strokeColor=#CC00CC;strokeWidth=2;container=0;fontSize=22;fillColor=none;" vertex="1" parent="134">
                    <mxGeometry x="325" y="60" width="205" height="90" as="geometry"/>
                </mxCell>
                <mxCell id="139" value="&lt;span style=&quot;font-size: 22px;&quot;&gt;&lt;font style=&quot;font-size: 22px;&quot;&gt;ISIO&lt;/font&gt;&lt;/span&gt;&lt;div style=&quot;font-size: 22px;&quot;&gt;&lt;span style=&quot;font-size: 22px;&quot;&gt;&lt;font style=&quot;font-size: 22px;&quot;&gt;low-latency IPC&lt;/font&gt;&lt;/span&gt;&lt;/div&gt;" style="rounded=1;whiteSpace=wrap;html=1;strokeColor=#008700;strokeWidth=2;container=0;fontSize=22;fillColor=none;fontColor=#008700;" vertex="1" parent="134">
                    <mxGeometry x="555" y="60" width="205" height="90" as="geometry"/>
                </mxCell>
                <mxCell id="140" value="&lt;font style=&quot;font-size: 22px;&quot;&gt;Event Loop&lt;/font&gt;" style="rounded=1;whiteSpace=wrap;html=1;container=0;fontSize=22;fillColor=none;fontColor=#000000;strokeColor=#000000;" vertex="1" parent="134">
                    <mxGeometry x="110" y="200" width="250" height="110" as="geometry"/>
                </mxCell>
                <mxCell id="141" value="&lt;font style=&quot;font-size: 22px;&quot;&gt;low-latency thread(s)&lt;/font&gt;&lt;div style=&quot;font-size: 22px;&quot;&gt;&lt;font style=&quot;font-size: 22px;&quot;&gt;(cpu isolated, r/t priority, etc.)&lt;/font&gt;&lt;/div&gt;" style="rounded=1;whiteSpace=wrap;html=1;container=0;fontSize=22;fillColor=none;fontColor=#000000;strokeColor=#000000;" vertex="1" parent="134">
                    <mxGeometry x="410" y="200" width="350" height="110" as="geometry"/>
                </mxCell>
                <mxCell id="142" value="&lt;font style=&quot;font-size: 22px;&quot;&gt;usb, RS232, modbus, telnet, PCIe, etc.&lt;/font&gt;" style="rounded=1;whiteSpace=wrap;html=1;strokeColor=#CC6600;strokeWidth=2;fontColor=#CC6600;container=0;fontSize=22;fillColor=none;" vertex="1" parent="134">
                    <mxGeometry x="90" y="430" width="240" height="90" as="geometry"/>
                </mxCell>
                <mxCell id="143" value="" style="endArrow=classic;startArrow=classic;html=1;rounded=0;entryX=0;entryY=0.5;entryDx=0;entryDy=0;strokeColor=#CC6600;strokeWidth=3;fontSize=22;" edge="1" parent="134" target="137">
                    <mxGeometry width="50" height="50" relative="1" as="geometry">
                        <mxPoint x="90" y="480" as="sourcePoint"/>
                        <mxPoint x="510" y="120" as="targetPoint"/>
                        <Array as="points">
                            <mxPoint y="480"/>
                            <mxPoint y="105"/>
                        </Array>
                    </mxGeometry>
                </mxCell>
                <mxCell id="144" value="&lt;font style=&quot;font-size: 22px;&quot;&gt;config&lt;/font&gt;" style="rounded=1;whiteSpace=wrap;html=1;container=0;fontSize=22;fillColor=none;strokeColor=#000000;fontColor=#000000;" vertex="1" parent="134">
                    <mxGeometry x="320" y="362" width="140" height="40" as="geometry"/>
                </mxCell>
                <mxCell id="145" value="logs" style="rounded=1;whiteSpace=wrap;html=1;container=0;fontSize=22;fillColor=none;strokeColor=#000000;fontColor=#000000;" vertex="1" parent="134">
                    <mxGeometry x="480" y="362" width="140" height="40" as="geometry"/>
                </mxCell>
                <mxCell id="146" value="&lt;span style=&quot;font-size: 22px;&quot;&gt;telemetry&lt;/span&gt;" style="rounded=1;whiteSpace=wrap;html=1;container=0;fontSize=22;fillColor=none;strokeColor=#000000;fontColor=#000000;" vertex="1" parent="134">
                    <mxGeometry x="640" y="362" width="140" height="40" as="geometry"/>
                </mxCell>
                <mxCell id="147" value="" style="shape=cylinder3;whiteSpace=wrap;html=1;boundedLbl=1;backgroundOutline=1;size=15;container=0;fontSize=22;fillColor=#E6E6E6;strokeColor=#000000;fillStyle=solid;" vertex="1" parent="134">
                    <mxGeometry x="360" y="462" width="60" height="40" as="geometry"/>
                </mxCell>
                <mxCell id="148" value="" style="shape=cylinder3;whiteSpace=wrap;html=1;boundedLbl=1;backgroundOutline=1;size=15;container=0;fontSize=22;fillColor=#E6E6E6;strokeColor=#000000;fillStyle=solid;" vertex="1" parent="134">
                    <mxGeometry x="360" y="442" width="60" height="40" as="geometry"/>
                </mxCell>
                <mxCell id="149" value="" style="shape=cylinder3;whiteSpace=wrap;html=1;boundedLbl=1;backgroundOutline=1;size=15;container=0;fontSize=22;fillColor=#E6E6E6;strokeColor=#000000;fillStyle=solid;" vertex="1" parent="134">
                    <mxGeometry x="520" y="472" width="60" height="40" as="geometry"/>
                </mxCell>
                <mxCell id="150" value="" style="shape=cylinder3;whiteSpace=wrap;html=1;boundedLbl=1;backgroundOutline=1;size=15;container=0;fontSize=22;fillColor=#E6E6E6;strokeColor=#000000;fillStyle=solid;" vertex="1" parent="134">
                    <mxGeometry x="520" y="462" width="60" height="40" as="geometry"/>
                </mxCell>
                <mxCell id="151" value="" style="shape=cylinder3;whiteSpace=wrap;html=1;boundedLbl=1;backgroundOutline=1;size=15;container=0;fontSize=22;fillColor=#E6E6E6;strokeColor=#000000;fillStyle=solid;" vertex="1" parent="134">
                    <mxGeometry x="680" y="472" width="60" height="40" as="geometry"/>
                </mxCell>
                <mxCell id="152" value="" style="shape=cylinder3;whiteSpace=wrap;html=1;boundedLbl=1;backgroundOutline=1;size=15;container=0;fontSize=22;fillColor=#E6E6E6;strokeColor=#000000;fillStyle=solid;" vertex="1" parent="134">
                    <mxGeometry x="680" y="462" width="60" height="40" as="geometry"/>
                </mxCell>
                <mxCell id="153" value="" style="shape=cylinder3;whiteSpace=wrap;html=1;boundedLbl=1;backgroundOutline=1;size=15;container=0;fontSize=22;fillColor=#E6E6E6;strokeColor=#000000;fillStyle=solid;" vertex="1" parent="134">
                    <mxGeometry x="680" y="442" width="60" height="40" as="geometry"/>
                </mxCell>
                <mxCell id="154" value="" style="endArrow=classic;html=1;rounded=0;exitX=0.5;exitY=0;exitDx=0;exitDy=0;exitPerimeter=0;entryX=0.5;entryY=1;entryDx=0;entryDy=0;fontSize=22;strokeColor=#000000;" edge="1" parent="134" source="148" target="144">
                    <mxGeometry width="50" height="50" relative="1" as="geometry">
                        <mxPoint x="680" y="122" as="sourcePoint"/>
                        <mxPoint x="730" y="72" as="targetPoint"/>
                    </mxGeometry>
                </mxCell>
                <mxCell id="155" value="" style="endArrow=classic;html=1;rounded=0;exitX=0.5;exitY=1;exitDx=0;exitDy=0;entryX=0.5;entryY=0;entryDx=0;entryDy=0;entryPerimeter=0;fontSize=22;strokeColor=#000000;" edge="1" parent="134" source="145">
                    <mxGeometry width="50" height="50" relative="1" as="geometry">
                        <mxPoint x="400" y="452" as="sourcePoint"/>
                        <mxPoint x="550" y="442" as="targetPoint"/>
                    </mxGeometry>
                </mxCell>
                <mxCell id="156" value="" style="endArrow=classic;html=1;rounded=0;exitX=0.5;exitY=1;exitDx=0;exitDy=0;entryX=0.5;entryY=0;entryDx=0;entryDy=0;entryPerimeter=0;fontSize=22;strokeColor=#000000;" edge="1" parent="134" source="146" target="153">
                    <mxGeometry width="50" height="50" relative="1" as="geometry">
                        <mxPoint x="680" y="122" as="sourcePoint"/>
                        <mxPoint x="710" y="432" as="targetPoint"/>
                    </mxGeometry>
                </mxCell>
                <mxCell id="157" value="XWCApp" style="text;html=1;align=center;verticalAlign=middle;whiteSpace=wrap;rounded=0;fontSize=22;fontColor=#3399FF;container=0;" vertex="1" parent="134">
                    <mxGeometry x="100" width="110" height="30" as="geometry"/>
                </mxCell>
                <mxCell id="158" value="" style="shape=cylinder3;whiteSpace=wrap;html=1;boundedLbl=1;backgroundOutline=1;size=15;container=0;fontSize=22;fillColor=#E6E6E6;strokeColor=#000000;fillStyle=solid;" vertex="1" parent="134">
                    <mxGeometry x="520" y="442" width="60" height="40" as="geometry"/>
                </mxCell>
                <mxCell id="159" value="device" style="ellipse;shape=doubleEllipse;whiteSpace=wrap;html=1;fillColor=#FF9933;fillStyle=solid;fontSize=22;fontColor=#000000;strokeWidth=3;strokeColor=#CC6600;" vertex="1" parent="134">
                    <mxGeometry x="100" y="570" width="220" height="70" as="geometry"/>
                </mxCell>
                <mxCell id="160" value="" style="endArrow=classic;startArrow=classic;html=1;rounded=0;entryX=0.5;entryY=1;entryDx=0;entryDy=0;fontColor=#000000;strokeColor=#CC6600;strokeWidth=3;labelBackgroundColor=none;fontSize=22;exitX=0.5;exitY=0;exitDx=0;exitDy=0;" edge="1" parent="134" source="159" target="142">
                    <mxGeometry width="50" height="50" relative="1" as="geometry">
                        <mxPoint x="270" y="560" as="sourcePoint"/>
                        <mxPoint x="510" y="120" as="targetPoint"/>
                    </mxGeometry>
                </mxCell>
                <mxCell id="162" value="" style="group" vertex="1" connectable="0" parent="1">
                    <mxGeometry x="1088" y="45" width="1740" height="898" as="geometry"/>
                </mxCell>
                <mxCell id="163" value="" style="rounded=1;whiteSpace=wrap;html=1;fillColor=none;strokeColor=#000000;" vertex="1" parent="162">
                    <mxGeometry y="40" width="1740" height="760" as="geometry"/>
                </mxCell>
                <mxCell id="164" value="&lt;font color=&quot;#008700&quot; style=&quot;font-size: 26px;&quot;&gt;shared memory&lt;/font&gt;" style="ellipse;whiteSpace=wrap;html=1;strokeWidth=2;strokeColor=#008700;fillColor=none;" vertex="1" parent="162">
                    <mxGeometry x="1261" y="68" width="340" height="80" as="geometry"/>
                </mxCell>
                <mxCell id="165" value="&lt;font color=&quot;#ff00ff&quot; style=&quot;font-size: 26px;&quot;&gt;INDI Server&lt;/font&gt;" style="shape=process;whiteSpace=wrap;html=1;backgroundOutline=1;strokeColor=#FF00FF;fillColor=none;strokeWidth=2;" vertex="1" parent="162">
                    <mxGeometry x="110" y="70" width="290" height="60" as="geometry"/>
                </mxCell>
                <mxCell id="166" value="" style="edgeStyle=elbowEdgeStyle;elbow=vertical;endArrow=classic;html=1;curved=0;rounded=0;endSize=8;startSize=8;entryX=0.5;entryY=1;entryDx=0;entryDy=0;strokeColor=#FF00FF;strokeWidth=2;startArrow=classic;startFill=1;exitX=0.5;exitY=0;exitDx=0;exitDy=0;" edge="1" parent="162" source="210" target="165">
                    <mxGeometry width="50" height="50" relative="1" as="geometry">
                        <mxPoint x="1307.5" y="300" as="sourcePoint"/>
                        <mxPoint x="1210" y="120" as="targetPoint"/>
                        <Array as="points">
                            <mxPoint x="1200" y="200"/>
                        </Array>
                    </mxGeometry>
                </mxCell>
                <mxCell id="167" style="edgeStyle=orthogonalEdgeStyle;rounded=0;orthogonalLoop=1;jettySize=auto;html=1;exitX=1;exitY=0.5;exitDx=0;exitDy=0;startArrow=classic;startFill=1;strokeColor=#008700;strokeWidth=2;endArrow=none;endFill=0;" edge="1" parent="162" source="168" target="164">
                    <mxGeometry relative="1" as="geometry"/>
                </mxCell>
                <mxCell id="168" value="&lt;font style=&quot;font-size: 26px;&quot; color=&quot;#008700&quot;&gt;milkzmq server&lt;/font&gt;" style="shape=process;whiteSpace=wrap;html=1;backgroundOutline=1;strokeColor=#008700;strokeWidth=2;fillColor=none;" vertex="1" parent="162">
                    <mxGeometry x="786" y="78" width="250" height="60" as="geometry"/>
                </mxCell>
                <mxCell id="169" value="&lt;font style=&quot;font-size: 26px;&quot;&gt;network interface&lt;/font&gt;" style="rounded=1;whiteSpace=wrap;html=1;fillColor=none;fontColor=#000000;strokeColor=#000000;strokeWidth=2;" vertex="1" parent="162">
                    <mxGeometry x="504" y="65" width="170" height="70" as="geometry"/>
                </mxCell>
                <mxCell id="170" style="edgeStyle=orthogonalEdgeStyle;rounded=0;orthogonalLoop=1;jettySize=auto;html=1;exitX=1;exitY=0.5;exitDx=0;exitDy=0;entryX=0;entryY=0.5;entryDx=0;entryDy=0;startArrow=classic;startFill=1;strokeWidth=2;strokeColor=#000000;" edge="1" parent="162" source="165" target="169">
                    <mxGeometry relative="1" as="geometry"/>
                </mxCell>
                <mxCell id="171" style="edgeStyle=orthogonalEdgeStyle;rounded=0;orthogonalLoop=1;jettySize=auto;html=1;exitX=0;exitY=0.5;exitDx=0;exitDy=0;entryX=1.006;entryY=0.617;entryDx=0;entryDy=0;entryPerimeter=0;startArrow=classic;startFill=1;strokeWidth=2;strokeColor=#000000;" edge="1" parent="162" source="168" target="169">
                    <mxGeometry relative="1" as="geometry"/>
                </mxCell>
                <mxCell id="172" value="" style="edgeStyle=elbowEdgeStyle;elbow=vertical;endArrow=classic;html=1;curved=0;rounded=0;endSize=8;startSize=8;entryX=0.5;entryY=1;entryDx=0;entryDy=0;strokeColor=#FF00FF;strokeWidth=2;startArrow=classic;startFill=1;exitX=0.5;exitY=0;exitDx=0;exitDy=0;" edge="1" parent="162" source="183" target="165">
                    <mxGeometry width="50" height="50" relative="1" as="geometry">
                        <mxPoint x="468" y="310" as="sourcePoint"/>
                        <mxPoint x="260" y="130" as="targetPoint"/>
                        <Array as="points">
                            <mxPoint x="420" y="200"/>
                        </Array>
                    </mxGeometry>
                </mxCell>
                <mxCell id="173" value="" style="edgeStyle=elbowEdgeStyle;elbow=vertical;endArrow=classic;html=1;curved=0;rounded=0;endSize=8;startSize=8;startArrow=classic;startFill=1;strokeColor=#008700;strokeWidth=2;exitX=0.213;exitY=-0.02;exitDx=0;exitDy=0;entryX=0.5;entryY=1;entryDx=0;entryDy=0;exitPerimeter=0;" edge="1" parent="162" source="211" target="164">
                    <mxGeometry width="50" height="50" relative="1" as="geometry">
                        <mxPoint x="1537.5" y="300" as="sourcePoint"/>
                        <mxPoint x="1390" y="130" as="targetPoint"/>
                        <Array as="points">
                            <mxPoint x="1560" y="220"/>
                        </Array>
                    </mxGeometry>
                </mxCell>
                <mxCell id="174" value="&lt;font style=&quot;font-size: 26px;&quot;&gt;Control Computer #2&lt;/font&gt;" style="text;html=1;align=center;verticalAlign=middle;whiteSpace=wrap;rounded=0;fontColor=#000000;" vertex="1" parent="162">
                    <mxGeometry x="80" width="260" height="30" as="geometry"/>
                </mxCell>
                <mxCell id="176" value="&lt;font color=&quot;#008700&quot; style=&quot;font-size: 26px;&quot;&gt;shmimTCP&lt;/font&gt;" style="rounded=1;whiteSpace=wrap;html=1;strokeColor=#008700;fillColor=none;strokeWidth=2;" vertex="1" parent="162">
                    <mxGeometry x="1562" y="163" width="160" height="70" as="geometry"/>
                </mxCell>
                <mxCell id="177" value="" style="endArrow=classic;startArrow=classic;html=1;strokeColor=#008700;fontSize=26;fontColor=#008700;entryX=1;entryY=0.5;entryDx=0;entryDy=0;exitX=0.5;exitY=0;exitDx=0;exitDy=0;strokeWidth=2;" edge="1" parent="162" source="176" target="164">
                    <mxGeometry width="50" height="50" relative="1" as="geometry">
                        <mxPoint x="2210" y="340" as="sourcePoint"/>
                        <mxPoint x="2260" y="290" as="targetPoint"/>
                        <Array as="points">
                            <mxPoint x="1642" y="108"/>
                        </Array>
                    </mxGeometry>
                </mxCell>
                <mxCell id="178" value="" style="edgeStyle=elbowEdgeStyle;elbow=vertical;endArrow=classic;html=1;curved=0;rounded=0;endSize=8;startSize=8;startArrow=classic;startFill=1;strokeColor=#008700;strokeWidth=2;entryX=0.5;entryY=1;entryDx=0;entryDy=0;exitX=0.459;exitY=0.017;exitDx=0;exitDy=0;exitPerimeter=0;" edge="1" parent="162" source="184" target="164">
                    <mxGeometry width="50" height="50" relative="1" as="geometry">
                        <mxPoint x="697.5" y="300" as="sourcePoint"/>
                        <mxPoint x="990" y="90" as="targetPoint"/>
                        <Array as="points">
                            <mxPoint x="1160" y="220"/>
                        </Array>
                    </mxGeometry>
                </mxCell>
                <mxCell id="179" value="" style="group" vertex="1" connectable="0" parent="162">
                    <mxGeometry x="50" y="255" width="820" height="640" as="geometry"/>
                </mxCell>
                <mxCell id="180" value="" style="shape=cylinder3;whiteSpace=wrap;html=1;boundedLbl=1;backgroundOutline=1;size=15;container=0;fontSize=22;fillColor=#E6E6E6;strokeColor=#000000;fillStyle=solid;" vertex="1" parent="179">
                    <mxGeometry x="360" y="472" width="60" height="40" as="geometry"/>
                </mxCell>
                <mxCell id="181" value="" style="rounded=1;whiteSpace=wrap;html=1;strokeWidth=2;strokeColor=#66B2FF;container=0;fillColor=none;fontSize=22;" vertex="1" parent="179">
                    <mxGeometry x="50" y="40" width="770" height="370" as="geometry"/>
                </mxCell>
                <mxCell id="182" value="&lt;font color=&quot;#cc6600&quot; style=&quot;font-size: 22px;&quot;&gt;device&amp;nbsp;&lt;/font&gt;&lt;div style=&quot;font-size: 22px;&quot;&gt;&lt;font color=&quot;#cc6600&quot; style=&quot;font-size: 22px;&quot;&gt;interface&lt;/font&gt;&lt;/div&gt;" style="rounded=1;whiteSpace=wrap;html=1;strokeColor=#d88322;strokeWidth=2;container=0;fontSize=22;fillColor=none;" vertex="1" parent="179">
                    <mxGeometry x="110" y="60" width="190" height="90" as="geometry"/>
                </mxCell>
                <mxCell id="183" value="&lt;span style=&quot;font-size: 22px;&quot;&gt;&lt;font color=&quot;#ff00ff&quot; style=&quot;font-size: 22px;&quot;&gt;INDI&lt;/font&gt;&lt;/span&gt;&lt;div style=&quot;font-size: 22px;&quot;&gt;&lt;span style=&quot;font-size: 22px;&quot;&gt;&lt;font color=&quot;#ff00ff&quot; style=&quot;font-size: 22px;&quot;&gt;soft-RT IPC&lt;/font&gt;&lt;/span&gt;&lt;/div&gt;" style="rounded=1;whiteSpace=wrap;html=1;strokeColor=#CC00CC;strokeWidth=2;container=0;fontSize=22;fillColor=none;" vertex="1" parent="179">
                    <mxGeometry x="325" y="60" width="205" height="90" as="geometry"/>
                </mxCell>
                <mxCell id="184" value="&lt;span style=&quot;font-size: 22px;&quot;&gt;&lt;font style=&quot;font-size: 22px;&quot;&gt;ISIO&lt;/font&gt;&lt;/span&gt;&lt;div style=&quot;font-size: 22px;&quot;&gt;&lt;span style=&quot;font-size: 22px;&quot;&gt;&lt;font style=&quot;font-size: 22px;&quot;&gt;low-latency IPC&lt;/font&gt;&lt;/span&gt;&lt;/div&gt;" style="rounded=1;whiteSpace=wrap;html=1;strokeColor=#008700;strokeWidth=2;container=0;fontSize=22;fillColor=none;fontColor=#008700;" vertex="1" parent="179">
                    <mxGeometry x="555" y="60" width="205" height="90" as="geometry"/>
                </mxCell>
                <mxCell id="185" value="&lt;font style=&quot;font-size: 22px;&quot;&gt;Event Loop&lt;/font&gt;" style="rounded=1;whiteSpace=wrap;html=1;container=0;fontSize=22;fillColor=none;fontColor=#000000;strokeColor=#000000;" vertex="1" parent="179">
                    <mxGeometry x="110" y="200" width="250" height="110" as="geometry"/>
                </mxCell>
                <mxCell id="186" value="&lt;font style=&quot;font-size: 22px;&quot;&gt;low-latency thread(s)&lt;/font&gt;&lt;div style=&quot;font-size: 22px;&quot;&gt;&lt;font style=&quot;font-size: 22px;&quot;&gt;(cpu isolated, r/t priority, etc.)&lt;/font&gt;&lt;/div&gt;" style="rounded=1;whiteSpace=wrap;html=1;container=0;fontSize=22;fillColor=none;fontColor=#000000;strokeColor=#000000;" vertex="1" parent="179">
                    <mxGeometry x="410" y="200" width="350" height="110" as="geometry"/>
                </mxCell>
                <mxCell id="187" value="&lt;font style=&quot;font-size: 22px;&quot;&gt;usb, RS232, modbus, telnet, PCIe, etc.&lt;/font&gt;" style="rounded=1;whiteSpace=wrap;html=1;strokeColor=#CC6600;strokeWidth=2;fontColor=#CC6600;container=0;fontSize=22;fillColor=none;" vertex="1" parent="179">
                    <mxGeometry x="90" y="430" width="240" height="90" as="geometry"/>
                </mxCell>
                <mxCell id="188" value="" style="endArrow=classic;startArrow=classic;html=1;rounded=0;entryX=0;entryY=0.5;entryDx=0;entryDy=0;strokeColor=#CC6600;strokeWidth=3;fontSize=22;" edge="1" parent="179" target="182">
                    <mxGeometry width="50" height="50" relative="1" as="geometry">
                        <mxPoint x="90" y="480" as="sourcePoint"/>
                        <mxPoint x="510" y="120" as="targetPoint"/>
                        <Array as="points">
                            <mxPoint y="480"/>
                            <mxPoint y="105"/>
                        </Array>
                    </mxGeometry>
                </mxCell>
                <mxCell id="189" value="&lt;font style=&quot;font-size: 22px;&quot;&gt;config&lt;/font&gt;" style="rounded=1;whiteSpace=wrap;html=1;container=0;fontSize=22;fillColor=none;strokeColor=#000000;fontColor=#000000;" vertex="1" parent="179">
                    <mxGeometry x="320" y="362" width="140" height="40" as="geometry"/>
                </mxCell>
                <mxCell id="190" value="logs" style="rounded=1;whiteSpace=wrap;html=1;container=0;fontSize=22;fillColor=none;strokeColor=#000000;fontColor=#000000;" vertex="1" parent="179">
                    <mxGeometry x="480" y="362" width="140" height="40" as="geometry"/>
                </mxCell>
                <mxCell id="191" value="&lt;span style=&quot;font-size: 22px;&quot;&gt;telemetry&lt;/span&gt;" style="rounded=1;whiteSpace=wrap;html=1;container=0;fontSize=22;fillColor=none;strokeColor=#000000;fontColor=#000000;" vertex="1" parent="179">
                    <mxGeometry x="640" y="362" width="140" height="40" as="geometry"/>
                </mxCell>
                <mxCell id="192" value="" style="shape=cylinder3;whiteSpace=wrap;html=1;boundedLbl=1;backgroundOutline=1;size=15;container=0;fontSize=22;fillColor=#E6E6E6;strokeColor=#000000;fillStyle=solid;" vertex="1" parent="179">
                    <mxGeometry x="360" y="462" width="60" height="40" as="geometry"/>
                </mxCell>
                <mxCell id="193" value="" style="shape=cylinder3;whiteSpace=wrap;html=1;boundedLbl=1;backgroundOutline=1;size=15;container=0;fontSize=22;fillColor=#E6E6E6;strokeColor=#000000;fillStyle=solid;" vertex="1" parent="179">
                    <mxGeometry x="360" y="442" width="60" height="40" as="geometry"/>
                </mxCell>
                <mxCell id="194" value="" style="shape=cylinder3;whiteSpace=wrap;html=1;boundedLbl=1;backgroundOutline=1;size=15;container=0;fontSize=22;fillColor=#E6E6E6;strokeColor=#000000;fillStyle=solid;" vertex="1" parent="179">
                    <mxGeometry x="520" y="472" width="60" height="40" as="geometry"/>
                </mxCell>
                <mxCell id="195" value="" style="shape=cylinder3;whiteSpace=wrap;html=1;boundedLbl=1;backgroundOutline=1;size=15;container=0;fontSize=22;fillColor=#E6E6E6;strokeColor=#000000;fillStyle=solid;" vertex="1" parent="179">
                    <mxGeometry x="520" y="462" width="60" height="40" as="geometry"/>
                </mxCell>
                <mxCell id="196" value="" style="shape=cylinder3;whiteSpace=wrap;html=1;boundedLbl=1;backgroundOutline=1;size=15;container=0;fontSize=22;fillColor=#E6E6E6;strokeColor=#000000;fillStyle=solid;" vertex="1" parent="179">
                    <mxGeometry x="680" y="472" width="60" height="40" as="geometry"/>
                </mxCell>
                <mxCell id="197" value="" style="shape=cylinder3;whiteSpace=wrap;html=1;boundedLbl=1;backgroundOutline=1;size=15;container=0;fontSize=22;fillColor=#E6E6E6;strokeColor=#000000;fillStyle=solid;" vertex="1" parent="179">
                    <mxGeometry x="680" y="462" width="60" height="40" as="geometry"/>
                </mxCell>
                <mxCell id="198" value="" style="shape=cylinder3;whiteSpace=wrap;html=1;boundedLbl=1;backgroundOutline=1;size=15;container=0;fontSize=22;fillColor=#E6E6E6;strokeColor=#000000;fillStyle=solid;" vertex="1" parent="179">
                    <mxGeometry x="680" y="442" width="60" height="40" as="geometry"/>
                </mxCell>
                <mxCell id="199" value="" style="endArrow=classic;html=1;rounded=0;exitX=0.5;exitY=0;exitDx=0;exitDy=0;exitPerimeter=0;entryX=0.5;entryY=1;entryDx=0;entryDy=0;fontSize=22;strokeColor=#000000;" edge="1" parent="179" source="193" target="189">
                    <mxGeometry width="50" height="50" relative="1" as="geometry">
                        <mxPoint x="680" y="122" as="sourcePoint"/>
                        <mxPoint x="730" y="72" as="targetPoint"/>
                    </mxGeometry>
                </mxCell>
                <mxCell id="200" value="" style="endArrow=classic;html=1;rounded=0;exitX=0.5;exitY=1;exitDx=0;exitDy=0;entryX=0.5;entryY=0;entryDx=0;entryDy=0;entryPerimeter=0;fontSize=22;strokeColor=#000000;" edge="1" parent="179" source="190">
                    <mxGeometry width="50" height="50" relative="1" as="geometry">
                        <mxPoint x="400" y="452" as="sourcePoint"/>
                        <mxPoint x="550" y="442" as="targetPoint"/>
                    </mxGeometry>
                </mxCell>
                <mxCell id="201" value="" style="endArrow=classic;html=1;rounded=0;exitX=0.5;exitY=1;exitDx=0;exitDy=0;entryX=0.5;entryY=0;entryDx=0;entryDy=0;entryPerimeter=0;fontSize=22;strokeColor=#000000;" edge="1" parent="179" source="191" target="198">
                    <mxGeometry width="50" height="50" relative="1" as="geometry">
                        <mxPoint x="680" y="122" as="sourcePoint"/>
                        <mxPoint x="710" y="432" as="targetPoint"/>
                    </mxGeometry>
                </mxCell>
                <mxCell id="202" value="XWCApp" style="text;html=1;align=center;verticalAlign=middle;whiteSpace=wrap;rounded=0;fontSize=22;fontColor=#3399FF;container=0;" vertex="1" parent="179">
                    <mxGeometry x="100" width="110" height="30" as="geometry"/>
                </mxCell>
                <mxCell id="203" value="" style="shape=cylinder3;whiteSpace=wrap;html=1;boundedLbl=1;backgroundOutline=1;size=15;container=0;fontSize=22;fillColor=#E6E6E6;strokeColor=#000000;fillStyle=solid;" vertex="1" parent="179">
                    <mxGeometry x="520" y="442" width="60" height="40" as="geometry"/>
                </mxCell>
                <mxCell id="204" value="device" style="ellipse;shape=doubleEllipse;whiteSpace=wrap;html=1;fillColor=#FF9933;fillStyle=solid;fontSize=22;fontColor=#000000;strokeWidth=3;strokeColor=#CC6600;" vertex="1" parent="179">
                    <mxGeometry x="100" y="570" width="220" height="70" as="geometry"/>
                </mxCell>
                <mxCell id="205" value="" style="endArrow=classic;startArrow=classic;html=1;rounded=0;entryX=0.5;entryY=1;entryDx=0;entryDy=0;fontColor=#000000;strokeColor=#CC6600;strokeWidth=3;labelBackgroundColor=none;fontSize=22;exitX=0.5;exitY=0;exitDx=0;exitDy=0;" edge="1" parent="179" source="204" target="187">
                    <mxGeometry width="50" height="50" relative="1" as="geometry">
                        <mxPoint x="270" y="560" as="sourcePoint"/>
                        <mxPoint x="510" y="120" as="targetPoint"/>
                    </mxGeometry>
                </mxCell>
                <mxCell id="206" value="" style="group" vertex="1" connectable="0" parent="162">
                    <mxGeometry x="888" y="258" width="820" height="640" as="geometry"/>
                </mxCell>
                <mxCell id="207" value="" style="shape=cylinder3;whiteSpace=wrap;html=1;boundedLbl=1;backgroundOutline=1;size=15;container=0;fontSize=22;fillColor=#E6E6E6;strokeColor=#000000;fillStyle=solid;" vertex="1" parent="206">
                    <mxGeometry x="360" y="472" width="60" height="40" as="geometry"/>
                </mxCell>
                <mxCell id="208" value="" style="rounded=1;whiteSpace=wrap;html=1;strokeWidth=2;strokeColor=#66B2FF;container=0;fillColor=none;fontSize=22;" vertex="1" parent="206">
                    <mxGeometry x="50" y="40" width="770" height="370" as="geometry"/>
                </mxCell>
                <mxCell id="209" value="&lt;font color=&quot;#cc6600&quot; style=&quot;font-size: 22px;&quot;&gt;device&amp;nbsp;&lt;/font&gt;&lt;div style=&quot;font-size: 22px;&quot;&gt;&lt;font color=&quot;#cc6600&quot; style=&quot;font-size: 22px;&quot;&gt;interface&lt;/font&gt;&lt;/div&gt;" style="rounded=1;whiteSpace=wrap;html=1;strokeColor=#d88322;strokeWidth=2;container=0;fontSize=22;fillColor=none;" vertex="1" parent="206">
                    <mxGeometry x="110" y="60" width="190" height="90" as="geometry"/>
                </mxCell>
                <mxCell id="210" value="&lt;span style=&quot;font-size: 22px;&quot;&gt;&lt;font color=&quot;#ff00ff&quot; style=&quot;font-size: 22px;&quot;&gt;INDI&lt;/font&gt;&lt;/span&gt;&lt;div style=&quot;font-size: 22px;&quot;&gt;&lt;span style=&quot;font-size: 22px;&quot;&gt;&lt;font color=&quot;#ff00ff&quot; style=&quot;font-size: 22px;&quot;&gt;soft-RT IPC&lt;/font&gt;&lt;/span&gt;&lt;/div&gt;" style="rounded=1;whiteSpace=wrap;html=1;strokeColor=#CC00CC;strokeWidth=2;container=0;fontSize=22;fillColor=none;" vertex="1" parent="206">
                    <mxGeometry x="325" y="60" width="205" height="90" as="geometry"/>
                </mxCell>
                <mxCell id="211" value="&lt;span style=&quot;font-size: 22px;&quot;&gt;&lt;font style=&quot;font-size: 22px;&quot;&gt;ISIO&lt;/font&gt;&lt;/span&gt;&lt;div style=&quot;font-size: 22px;&quot;&gt;&lt;span style=&quot;font-size: 22px;&quot;&gt;&lt;font style=&quot;font-size: 22px;&quot;&gt;low-latency IPC&lt;/font&gt;&lt;/span&gt;&lt;/div&gt;" style="rounded=1;whiteSpace=wrap;html=1;strokeColor=#008700;strokeWidth=2;container=0;fontSize=22;fillColor=none;fontColor=#008700;" vertex="1" parent="206">
                    <mxGeometry x="555" y="60" width="205" height="90" as="geometry"/>
                </mxCell>
                <mxCell id="212" value="&lt;font style=&quot;font-size: 22px;&quot;&gt;Event Loop&lt;/font&gt;" style="rounded=1;whiteSpace=wrap;html=1;container=0;fontSize=22;fillColor=none;fontColor=#000000;strokeColor=#000000;" vertex="1" parent="206">
                    <mxGeometry x="110" y="200" width="250" height="110" as="geometry"/>
                </mxCell>
                <mxCell id="213" value="&lt;font style=&quot;font-size: 22px;&quot;&gt;low-latency thread(s)&lt;/font&gt;&lt;div style=&quot;font-size: 22px;&quot;&gt;&lt;font style=&quot;font-size: 22px;&quot;&gt;(cpu isolated, r/t priority, etc.)&lt;/font&gt;&lt;/div&gt;" style="rounded=1;whiteSpace=wrap;html=1;container=0;fontSize=22;fillColor=none;fontColor=#000000;strokeColor=#000000;" vertex="1" parent="206">
                    <mxGeometry x="410" y="200" width="350" height="110" as="geometry"/>
                </mxCell>
                <mxCell id="214" value="&lt;font style=&quot;font-size: 22px;&quot;&gt;usb, RS232, modbus, telnet, PCIe, etc.&lt;/font&gt;" style="rounded=1;whiteSpace=wrap;html=1;strokeColor=#CC6600;strokeWidth=2;fontColor=#CC6600;container=0;fontSize=22;fillColor=none;" vertex="1" parent="206">
                    <mxGeometry x="90" y="430" width="240" height="90" as="geometry"/>
                </mxCell>
                <mxCell id="215" value="" style="endArrow=classic;startArrow=classic;html=1;rounded=0;entryX=0;entryY=0.5;entryDx=0;entryDy=0;strokeColor=#CC6600;strokeWidth=3;fontSize=22;" edge="1" parent="206" target="209">
                    <mxGeometry width="50" height="50" relative="1" as="geometry">
                        <mxPoint x="90" y="480" as="sourcePoint"/>
                        <mxPoint x="510" y="120" as="targetPoint"/>
                        <Array as="points">
                            <mxPoint y="480"/>
                            <mxPoint y="105"/>
                        </Array>
                    </mxGeometry>
                </mxCell>
                <mxCell id="216" value="&lt;font style=&quot;font-size: 22px;&quot;&gt;config&lt;/font&gt;" style="rounded=1;whiteSpace=wrap;html=1;container=0;fontSize=22;fillColor=none;strokeColor=#000000;fontColor=#000000;" vertex="1" parent="206">
                    <mxGeometry x="320" y="362" width="140" height="40" as="geometry"/>
                </mxCell>
                <mxCell id="217" value="logs" style="rounded=1;whiteSpace=wrap;html=1;container=0;fontSize=22;fillColor=none;strokeColor=#000000;fontColor=#000000;" vertex="1" parent="206">
                    <mxGeometry x="480" y="362" width="140" height="40" as="geometry"/>
                </mxCell>
                <mxCell id="218" value="&lt;span style=&quot;font-size: 22px;&quot;&gt;telemetry&lt;/span&gt;" style="rounded=1;whiteSpace=wrap;html=1;container=0;fontSize=22;fillColor=none;strokeColor=#000000;fontColor=#000000;" vertex="1" parent="206">
                    <mxGeometry x="640" y="362" width="140" height="40" as="geometry"/>
                </mxCell>
                <mxCell id="219" value="" style="shape=cylinder3;whiteSpace=wrap;html=1;boundedLbl=1;backgroundOutline=1;size=15;container=0;fontSize=22;fillColor=#E6E6E6;strokeColor=#000000;fillStyle=solid;" vertex="1" parent="206">
                    <mxGeometry x="360" y="462" width="60" height="40" as="geometry"/>
                </mxCell>
                <mxCell id="220" value="" style="shape=cylinder3;whiteSpace=wrap;html=1;boundedLbl=1;backgroundOutline=1;size=15;container=0;fontSize=22;fillColor=#E6E6E6;strokeColor=#000000;fillStyle=solid;" vertex="1" parent="206">
                    <mxGeometry x="360" y="442" width="60" height="40" as="geometry"/>
                </mxCell>
                <mxCell id="221" value="" style="shape=cylinder3;whiteSpace=wrap;html=1;boundedLbl=1;backgroundOutline=1;size=15;container=0;fontSize=22;fillColor=#E6E6E6;strokeColor=#000000;fillStyle=solid;" vertex="1" parent="206">
                    <mxGeometry x="520" y="472" width="60" height="40" as="geometry"/>
                </mxCell>
                <mxCell id="222" value="" style="shape=cylinder3;whiteSpace=wrap;html=1;boundedLbl=1;backgroundOutline=1;size=15;container=0;fontSize=22;fillColor=#E6E6E6;strokeColor=#000000;fillStyle=solid;" vertex="1" parent="206">
                    <mxGeometry x="520" y="462" width="60" height="40" as="geometry"/>
                </mxCell>
                <mxCell id="223" value="" style="shape=cylinder3;whiteSpace=wrap;html=1;boundedLbl=1;backgroundOutline=1;size=15;container=0;fontSize=22;fillColor=#E6E6E6;strokeColor=#000000;fillStyle=solid;" vertex="1" parent="206">
                    <mxGeometry x="680" y="472" width="60" height="40" as="geometry"/>
                </mxCell>
                <mxCell id="224" value="" style="shape=cylinder3;whiteSpace=wrap;html=1;boundedLbl=1;backgroundOutline=1;size=15;container=0;fontSize=22;fillColor=#E6E6E6;strokeColor=#000000;fillStyle=solid;" vertex="1" parent="206">
                    <mxGeometry x="680" y="462" width="60" height="40" as="geometry"/>
                </mxCell>
                <mxCell id="225" value="" style="shape=cylinder3;whiteSpace=wrap;html=1;boundedLbl=1;backgroundOutline=1;size=15;container=0;fontSize=22;fillColor=#E6E6E6;strokeColor=#000000;fillStyle=solid;" vertex="1" parent="206">
                    <mxGeometry x="680" y="442" width="60" height="40" as="geometry"/>
                </mxCell>
                <mxCell id="226" value="" style="endArrow=classic;html=1;rounded=0;exitX=0.5;exitY=0;exitDx=0;exitDy=0;exitPerimeter=0;entryX=0.5;entryY=1;entryDx=0;entryDy=0;fontSize=22;strokeColor=#000000;" edge="1" parent="206" source="220" target="216">
                    <mxGeometry width="50" height="50" relative="1" as="geometry">
                        <mxPoint x="680" y="122" as="sourcePoint"/>
                        <mxPoint x="730" y="72" as="targetPoint"/>
                    </mxGeometry>
                </mxCell>
                <mxCell id="227" value="" style="endArrow=classic;html=1;rounded=0;exitX=0.5;exitY=1;exitDx=0;exitDy=0;entryX=0.5;entryY=0;entryDx=0;entryDy=0;entryPerimeter=0;fontSize=22;strokeColor=#000000;" edge="1" parent="206" source="217">
                    <mxGeometry width="50" height="50" relative="1" as="geometry">
                        <mxPoint x="400" y="452" as="sourcePoint"/>
                        <mxPoint x="550" y="442" as="targetPoint"/>
                    </mxGeometry>
                </mxCell>
                <mxCell id="228" value="" style="endArrow=classic;html=1;rounded=0;exitX=0.5;exitY=1;exitDx=0;exitDy=0;entryX=0.5;entryY=0;entryDx=0;entryDy=0;entryPerimeter=0;fontSize=22;strokeColor=#000000;" edge="1" parent="206" source="218" target="225">
                    <mxGeometry width="50" height="50" relative="1" as="geometry">
                        <mxPoint x="680" y="122" as="sourcePoint"/>
                        <mxPoint x="710" y="432" as="targetPoint"/>
                    </mxGeometry>
                </mxCell>
                <mxCell id="229" value="XWCApp" style="text;html=1;align=center;verticalAlign=middle;whiteSpace=wrap;rounded=0;fontSize=22;fontColor=#3399FF;container=0;" vertex="1" parent="206">
                    <mxGeometry x="100" width="110" height="30" as="geometry"/>
                </mxCell>
                <mxCell id="230" value="" style="shape=cylinder3;whiteSpace=wrap;html=1;boundedLbl=1;backgroundOutline=1;size=15;container=0;fontSize=22;fillColor=#E6E6E6;strokeColor=#000000;fillStyle=solid;" vertex="1" parent="206">
                    <mxGeometry x="520" y="442" width="60" height="40" as="geometry"/>
                </mxCell>
                <mxCell id="231" value="device" style="ellipse;shape=doubleEllipse;whiteSpace=wrap;html=1;fillColor=#FF9933;fillStyle=solid;fontSize=22;fontColor=#000000;strokeWidth=3;strokeColor=#CC6600;" vertex="1" parent="206">
                    <mxGeometry x="100" y="570" width="220" height="70" as="geometry"/>
                </mxCell>
                <mxCell id="232" value="" style="endArrow=classic;startArrow=classic;html=1;rounded=0;entryX=0.5;entryY=1;entryDx=0;entryDy=0;fontColor=#000000;strokeColor=#CC6600;strokeWidth=3;labelBackgroundColor=none;fontSize=22;exitX=0.5;exitY=0;exitDx=0;exitDy=0;" edge="1" parent="206" source="231" target="214">
                    <mxGeometry width="50" height="50" relative="1" as="geometry">
                        <mxPoint x="270" y="560" as="sourcePoint"/>
                        <mxPoint x="510" y="120" as="targetPoint"/>
                    </mxGeometry>
                </mxCell>
                <mxCell id="175" value="" style="endArrow=classic;startArrow=classic;html=1;rounded=0;exitX=0.5;exitY=0;exitDx=0;exitDy=0;entryX=1;entryY=0.5;entryDx=0;entryDy=0;strokeColor=#000000;strokeWidth=2;" edge="1" parent="1" source="169" target="HDgts2HRx_NMo5KgWnL6-82">
                    <mxGeometry width="50" height="50" relative="1" as="geometry">
                        <mxPoint x="1838" y="-75" as="sourcePoint"/>
                        <mxPoint x="1888" y="-125" as="targetPoint"/>
                        <Array as="points">
                            <mxPoint x="1677" y="25"/>
                        </Array>
                    </mxGeometry>
                </mxCell>
            </root>
        </mxGraphModel>
    </diagram>
</mxfile>
